<svg xmlns="http://www.w3.org/2000/svg" version="1.1" xmlns:xlink="http://www.w3.org/1999/xlink" xmlns:svgjs="http://svgjs.dev/svgjs" width="245" height="245"><svg width="245" height="245" viewBox="0 0 245 245" fill="none" xmlns="http://www.w3.org/2000/svg">
<circle cx="122.5" cy="122.5" r="122.5" fill="#111111"></circle>
<path d="M56.5881 166V78.7273H87.696C94.4574 78.7273 100.068 79.892 104.528 82.2216C109.017 84.5511 112.369 87.7756 114.585 91.8949C116.801 95.9858 117.909 100.716 117.909 106.085C117.909 111.426 116.787 116.128 114.543 120.19C112.327 124.224 108.974 127.364 104.486 129.608C100.026 131.852 94.4148 132.974 87.6534 132.974H64.0881V121.639H86.4602C90.7216 121.639 94.1875 121.028 96.858 119.807C99.5568 118.585 101.531 116.81 102.781 114.48C104.031 112.151 104.656 109.352 104.656 106.085C104.656 102.79 104.017 99.9347 102.739 97.5199C101.489 95.1051 99.5142 93.2585 96.8153 91.9801C94.1449 90.6733 90.6364 90.0199 86.2898 90.0199H69.7557V166H56.5881ZM99.6705 126.625L121.233 166H106.233L85.0966 126.625H99.6705ZM176.731 101.653C176.277 97.6193 174.402 94.4943 171.106 92.2784C167.811 90.0341 163.663 88.9119 158.663 88.9119C155.084 88.9119 151.987 89.4801 149.373 90.6165C146.76 91.7244 144.728 93.2585 143.28 95.2188C141.859 97.1506 141.149 99.3523 141.149 101.824C141.149 103.898 141.632 105.687 142.598 107.193C143.592 108.699 144.885 109.963 146.476 110.986C148.095 111.98 149.828 112.818 151.674 113.5C153.521 114.153 155.297 114.693 157.001 115.119L165.524 117.335C168.308 118.017 171.163 118.94 174.089 120.105C177.015 121.27 179.728 122.804 182.228 124.707C184.728 126.611 186.745 128.969 188.28 131.781C189.842 134.594 190.623 137.96 190.623 141.881C190.623 146.824 189.345 151.213 186.788 155.048C184.26 158.884 180.581 161.909 175.751 164.125C170.95 166.341 165.14 167.449 158.322 167.449C151.788 167.449 146.135 166.412 141.362 164.338C136.589 162.264 132.853 159.324 130.155 155.517C127.456 151.682 125.964 147.136 125.68 141.881H138.89C139.146 145.034 140.169 147.662 141.959 149.764C143.777 151.838 146.092 153.386 148.905 154.409C151.745 155.403 154.856 155.901 158.237 155.901C161.959 155.901 165.268 155.318 168.166 154.153C171.092 152.96 173.393 151.312 175.069 149.21C176.745 147.08 177.584 144.594 177.584 141.753C177.584 139.168 176.845 137.051 175.368 135.403C173.919 133.756 171.944 132.392 169.444 131.312C166.973 130.233 164.174 129.281 161.049 128.457L150.737 125.645C143.748 123.741 138.209 120.943 134.118 117.25C130.055 113.557 128.024 108.67 128.024 102.591C128.024 97.5625 129.387 93.1733 132.115 89.4233C134.842 85.6733 138.535 82.7614 143.194 80.6875C147.853 78.5852 153.109 77.5341 158.961 77.5341C164.87 77.5341 170.084 78.571 174.601 80.6449C179.146 82.7188 182.726 85.5739 185.339 89.2102C187.953 92.8182 189.316 96.9659 189.43 101.653H176.731Z" fill="white"></path>
</svg><style>@media (prefers-color-scheme: light) { :root { filter: none; } }
@media (prefers-color-scheme: dark) { :root { filter: none; } }
</style></svg>